<?xml version="1.0" encoding="UTF-8"?>
<!DOCTYPE svg PUBLIC "-//W3C//DTD SVG 1.1//EN" "http://www.w3.org/Graphics/SVG/1.1/DTD/svg11.dtd">
<svg xmlns="http://www.w3.org/2000/svg" version="1.1" width="595px" height="595px" style="shape-rendering:geometricPrecision; text-rendering:geometricPrecision; image-rendering:optimizeQuality; fill-rule:evenodd; clip-rule:evenodd" xmlns:xlink="http://www.w3.org/1999/xlink">
<g><path style="opacity:0.977" fill="#fefffe" d="M 247.5,62.5 C 260.58,64.803 273.247,68.6364 285.5,74C 294.167,77.3333 302.833,77.3333 311.5,74C 323.463,68.8449 335.796,65.0115 348.5,62.5C 357.454,63.2845 364.62,67.2845 370,74.5C 376.731,86.1289 384.565,96.9622 393.5,107C 397.221,109.527 401.221,111.527 405.5,113C 416.691,115.731 427.691,119.064 438.5,123C 446.044,126.912 450.544,133.079 452,141.5C 452.685,152.512 452.518,163.512 451.5,174.5C 451.545,185.473 455.045,195.139 462,203.5C 470.648,211.812 477.314,221.479 482,232.5C 482.851,238.253 482.517,243.92 481,249.5C 479.066,253.759 476.732,257.759 474,261.5C 468.094,268.317 462.427,275.317 457,282.5C 453.354,289.369 451.521,296.703 451.5,304.5C 452.518,315.488 452.685,326.488 452,337.5C 450.077,348.093 443.91,354.927 433.5,358C 423.121,360.845 412.788,363.845 402.5,367C 396.353,369.492 391.186,373.326 387,378.5C 380.359,389.616 372.859,400.116 364.5,410C 357.321,415.222 349.321,416.889 340.5,415C 329.77,411.534 319.103,407.868 308.5,404C 301.824,402.059 295.157,402.059 288.5,404C 277.897,407.868 267.23,411.534 256.5,415C 242.985,417.492 232.485,412.992 225,401.5C 218.689,391.046 211.523,381.213 203.5,372C 200.661,370.08 197.661,368.413 194.5,367C 184.212,363.845 173.879,360.845 163.5,358C 153.09,354.927 146.923,348.093 145,337.5C 144.315,326.488 144.482,315.488 145.5,304.5C 145.479,296.703 143.646,289.369 140,282.5C 134.573,275.317 128.906,268.317 123,261.5C 111.667,246.833 111.667,232.167 123,217.5C 129.382,210.12 135.382,202.453 141,194.5C 143.891,188.159 145.391,181.492 145.5,174.5C 144.482,163.512 144.315,152.512 145,141.5C 146.456,133.079 150.956,126.912 158.5,123C 169.309,119.064 180.309,115.731 191.5,113C 200.259,110.372 207.092,105.205 212,97.5C 217,89.8333 222,82.1667 227,74.5C 232.317,67.6369 239.151,63.6369 247.5,62.5 Z M 282.5,109.5 C 338.018,106.009 380.852,127.343 411,173.5C 431.652,211.73 433.986,251.063 418,291.5C 390.776,346.545 346.276,372.378 284.5,369C 241.664,363.018 208.831,341.852 186,305.5C 162.667,261.495 162.667,217.495 186,173.5C 208.422,137.595 240.589,116.262 282.5,109.5 Z"/></g>
<g><path style="opacity:0.981" fill="#fefffe" d="M 296.5,124.5 C 308.981,148.129 320.981,172.129 332.5,196.5C 357.733,200.124 383.067,203.291 408.5,206C 390.333,224.167 372.167,242.333 354,260.5C 357.63,286.277 362.13,311.943 367.5,337.5C 367.167,337.833 366.833,338.167 366.5,338.5C 343.553,326.11 320.387,314.11 297,302.5C 273.613,314.11 250.447,326.11 227.5,338.5C 231.223,312.675 235.89,286.841 241.5,261C 222.528,243.029 203.862,224.695 185.5,206C 210.933,203.291 236.267,200.124 261.5,196.5C 273.18,172.474 284.847,148.474 296.5,124.5 Z"/></g>
<g><path style="opacity:0.939" fill="#fefffe" d="M 270.5,148.5 C 272.199,148.34 273.866,148.506 275.5,149C 268.229,162.876 261.229,176.876 254.5,191C 240.09,193.436 225.757,194.936 211.5,195.5C 224.979,172.017 244.645,156.35 270.5,148.5 Z"/></g>
<g><path style="opacity:0.941" fill="#fefffe" d="M 319.5,148.5 C 346.672,155.084 367.339,170.417 381.5,194.5C 367.41,194.843 353.41,193.676 339.5,191C 332.414,176.997 325.748,162.831 319.5,148.5 Z"/></g>
<g><path style="opacity:0.939" fill="#fefffe" d="M 199.5,236.5 C 209.495,246.328 219.662,255.994 230,265.5C 228.452,279.247 226.119,292.914 223,306.5C 205.714,286.477 197.881,263.143 199.5,236.5 Z"/></g>
<g><path style="opacity:0.935" fill="#fefffe" d="M 392.5,237.5 C 395.252,262.927 388.252,285.594 371.5,305.5C 367.777,292.387 365.277,279.054 364,265.5C 374.005,256.661 383.505,247.328 392.5,237.5 Z"/></g>
<g><path style="opacity:0.928" fill="#fefffe" d="M 296.5,313.5 C 308.456,319.144 320.123,325.311 331.5,332C 308.975,340.266 286.309,340.599 263.5,333C 262.167,332.333 262.167,331.667 263.5,331C 274.562,325.138 285.562,319.304 296.5,313.5 Z"/></g>
<g><path style="opacity:0.975" fill="#fefffe" d="M 196.5,393.5 C 198.371,393.859 199.871,394.859 201,396.5C 208.823,409.977 217.99,422.477 228.5,434C 235.405,438.975 243.072,440.642 251.5,439C 258.773,437.464 265.773,435.131 272.5,432C 273.833,431.333 275.167,431.333 276.5,432C 258.928,468.974 241.261,505.808 223.5,542.5C 214.005,529.496 204.671,516.329 195.5,503C 178.533,503.593 161.533,503.593 144.5,503C 161.976,466.55 179.309,430.05 196.5,393.5 Z"/></g>
<g><path style="opacity:0.975" fill="#fefffe" d="M 398.5,394.5 C 401.478,398.443 403.978,402.777 406,407.5C 421.124,439.413 435.958,471.413 450.5,503.5C 433.798,503.591 417.131,503.425 400.5,503C 391.623,515.921 382.623,528.754 373.5,541.5C 372.998,542.521 372.332,542.688 371.5,542C 353.474,505.117 336.141,467.95 319.5,430.5C 328.307,433.824 337.307,436.657 346.5,439C 354.928,440.642 362.595,438.975 369.5,434C 372.333,431.167 375.167,428.333 378,425.5C 384.844,415.138 391.677,404.805 398.5,394.5 Z"/></g>
</svg>
