<svg width="28" height="24" viewBox="0 0 28 24" fill="none" xmlns="http://www.w3.org/2000/svg">
<path d="M20.1008 18.5138C18.8529 18.5138 17.8377 17.4986 17.8377 16.2508V12.4925C17.8377 11.2446 18.8529 10.2295 20.1008 10.2295H25.9975C26.0332 10.2295 26.0687 10.2306 26.1041 10.2322V6.48829C26.1041 5.52458 25.3228 4.74335 24.3591 4.74335H2.72449C1.76073 4.74329 0.979492 5.52453 0.979492 6.48823V22.255C0.979492 23.2187 1.76073 24 2.72449 24H24.3591C25.3228 24 26.1041 23.2187 26.1041 22.255V18.5111C26.0687 18.5128 26.0332 18.5138 25.9975 18.5138H20.1008Z" fill="white"/>
<path d="M25.9976 11.4695H20.1009C19.5359 11.4695 19.0779 11.9276 19.0779 12.4925V16.2508C19.0779 16.8158 19.5359 17.2738 20.1009 17.2738H25.9976C26.5626 17.2738 27.0206 16.8159 27.0206 16.2508V12.4925C27.0206 11.9275 26.5626 11.4695 25.9976 11.4695ZM22.1328 15.8482C21.3173 15.8482 20.6563 15.1871 20.6563 14.3716C20.6563 13.5561 21.3173 12.8951 22.1328 12.8951C22.9483 12.8951 23.6093 13.5561 23.6093 14.3716C23.6093 15.1871 22.9483 15.8482 22.1328 15.8482Z" fill="white"/>
<path d="M21.3208 1.547C20.9304 0.365378 19.6561 -0.276034 18.4745 0.114356L9.60962 3.04308H21.8151L21.3208 1.547Z" fill="white"/>
</svg>
