<svg width="24" height="24" viewBox="0 0 24 24" fill="none" xmlns="http://www.w3.org/2000/svg">
<mask id="path-1-inside-1_241_2486" fill="white">
<path fill-rule="evenodd" clip-rule="evenodd" d="M12.598 2.29289L21.489 11.1838C21.8795 11.5744 21.8795 12.2075 21.489 12.598L12.598 21.489C12.2075 21.8795 11.5744 21.8795 11.1838 21.489L2.29289 12.598C1.90237 12.2075 1.90237 11.5744 2.29289 11.1838L11.1838 2.29289C11.5744 1.90237 12.2075 1.90237 12.598 2.29289ZM9.76962 0.87868C10.9412 -0.292893 12.8407 -0.292894 14.0123 0.878679L22.9032 9.76962C24.0748 10.9412 24.0748 12.8407 22.9032 14.0123L14.0123 22.9032C12.8407 24.0748 10.9412 24.0748 9.76962 22.9032L0.87868 14.0123C-0.292893 12.8407 -0.292894 10.9412 0.878679 9.76962L9.76962 0.87868Z"/>
</mask>
<path fill-rule="evenodd" clip-rule="evenodd" d="M12.598 2.29289L21.489 11.1838C21.8795 11.5744 21.8795 12.2075 21.489 12.598L12.598 21.489C12.2075 21.8795 11.5744 21.8795 11.1838 21.489L2.29289 12.598C1.90237 12.2075 1.90237 11.5744 2.29289 11.1838L11.1838 2.29289C11.5744 1.90237 12.2075 1.90237 12.598 2.29289ZM9.76962 0.87868C10.9412 -0.292893 12.8407 -0.292894 14.0123 0.878679L22.9032 9.76962C24.0748 10.9412 24.0748 12.8407 22.9032 14.0123L14.0123 22.9032C12.8407 24.0748 10.9412 24.0748 9.76962 22.9032L0.87868 14.0123C-0.292893 12.8407 -0.292894 10.9412 0.878679 9.76962L9.76962 0.87868Z" fill="black"/>
<path d="M21.489 11.1838L20.7819 11.8909L20.7819 11.8909L21.489 11.1838ZM12.598 2.29289L11.8909 3L11.8909 3L12.598 2.29289ZM21.489 12.598L20.7819 11.8909L20.7819 11.8909L21.489 12.598ZM12.598 21.489L11.8909 20.7819L11.8909 20.7819L12.598 21.489ZM11.1838 21.489L11.8909 20.7819L11.8909 20.7819L11.1838 21.489ZM2.29289 12.598L3 11.8909L3 11.8909L2.29289 12.598ZM2.29289 11.1838L3 11.8909L3 11.8909L2.29289 11.1838ZM11.1838 2.29289L11.8909 3L11.8909 3L11.1838 2.29289ZM14.0123 0.878679L14.7194 0.171572L14.7194 0.171572L14.0123 0.878679ZM9.76962 0.87868L10.4767 1.58579L10.4767 1.58579L9.76962 0.87868ZM22.9032 9.76962L23.6103 9.06251L23.6103 9.06251L22.9032 9.76962ZM22.9032 14.0123L22.1961 13.3052L22.1961 13.3052L22.9032 14.0123ZM14.0123 22.9032L14.7194 23.6103L14.7194 23.6103L14.0123 22.9032ZM9.76962 22.9032L10.4767 22.1961L9.76962 22.9032ZM0.87868 14.0123L1.58579 13.3052L1.58579 13.3052L0.87868 14.0123ZM0.878679 9.76962L0.171572 9.06251L0.171572 9.06251L0.878679 9.76962ZM22.1961 10.4767L13.3052 1.58579L11.8909 3L20.7819 11.8909L22.1961 10.4767ZM22.1961 13.3052C22.9771 12.5241 22.9771 11.2578 22.1961 10.4767L20.7819 11.8909L20.7819 11.8909L22.1961 13.3052ZM13.3052 22.1961L22.1961 13.3052L20.7819 11.8909L11.8909 20.7819L13.3052 22.1961ZM10.4767 22.1961C11.2578 22.9771 12.5241 22.9771 13.3052 22.1961L11.8909 20.7819L11.8909 20.7819L10.4767 22.1961ZM1.58579 13.3052L10.4767 22.1961L11.8909 20.7819L3 11.8909L1.58579 13.3052ZM1.58579 10.4767C0.804738 11.2578 0.804737 12.5241 1.58579 13.3052L3 11.8909L3 11.8909L1.58579 10.4767ZM10.4767 1.58579L1.58579 10.4767L3 11.8909L11.8909 3L10.4767 1.58579ZM13.3052 1.58579C12.5241 0.804738 11.2578 0.804737 10.4767 1.58579L11.8909 3L11.8909 3L13.3052 1.58579ZM14.7194 0.171572C13.1573 -1.39053 10.6246 -1.39052 9.06251 0.171573L10.4767 1.58579C11.2578 0.804738 12.5241 0.804738 13.3052 1.58579L14.7194 0.171572ZM23.6103 9.06251L14.7194 0.171572L13.3052 1.58579L22.1961 10.4767L23.6103 9.06251ZM23.6103 14.7194C25.1724 13.1573 25.1724 10.6246 23.6103 9.06251L22.1961 10.4767C22.9771 11.2578 22.9771 12.5241 22.1961 13.3052L23.6103 14.7194ZM14.7194 23.6103L23.6103 14.7194L22.1961 13.3052L13.3052 22.1961L14.7194 23.6103ZM9.06251 23.6103C10.6246 25.1724 13.1573 25.1724 14.7194 23.6103L13.3052 22.1961C12.5241 22.9771 11.2578 22.9771 10.4767 22.1961L9.06251 23.6103ZM0.171573 14.7194L9.06251 23.6103L10.4767 22.1961L1.58579 13.3052L0.171573 14.7194ZM0.171572 9.06251C-1.39053 10.6246 -1.39052 13.1573 0.171573 14.7194L1.58579 13.3052C0.804738 12.5241 0.804738 11.2578 1.58579 10.4767L0.171572 9.06251ZM9.06251 0.171573L0.171572 9.06251L1.58579 10.4767L10.4767 1.58579L9.06251 0.171573Z" fill="#7E8EFF" mask="url(#path-1-inside-1_241_2486)"/>
<path d="M14.708 9.028H10.964V10.684C11.124 10.508 11.348 10.364 11.636 10.252C11.924 10.14 12.236 10.084 12.572 10.084C13.172 10.084 13.668 10.22 14.06 10.492C14.46 10.764 14.752 11.116 14.936 11.548C15.12 11.98 15.212 12.448 15.212 12.952C15.212 13.888 14.948 14.632 14.42 15.184C13.892 15.728 13.148 16 12.188 16C11.548 16 10.992 15.892 10.52 15.676C10.048 15.452 9.684 15.144 9.428 14.752C9.172 14.36 9.032 13.908 9.008 13.396H11.012C11.06 13.644 11.176 13.852 11.36 14.02C11.544 14.18 11.796 14.26 12.116 14.26C12.492 14.26 12.772 14.14 12.956 13.9C13.14 13.66 13.232 13.34 13.232 12.94C13.232 12.548 13.136 12.248 12.944 12.04C12.752 11.832 12.472 11.728 12.104 11.728C11.832 11.728 11.608 11.796 11.432 11.932C11.256 12.06 11.14 12.232 11.084 12.448H9.104V7.228H14.708V9.028Z" fill="#7E8EFF"/>
</svg>
