<svg width="24" height="24" viewBox="0 0 24 24" fill="none" xmlns="http://www.w3.org/2000/svg">
<mask id="path-1-inside-1_241_2484" fill="white">
<path fill-rule="evenodd" clip-rule="evenodd" d="M12.598 2.29289L21.489 11.1838C21.8795 11.5744 21.8795 12.2075 21.489 12.598L12.598 21.489C12.2075 21.8795 11.5744 21.8795 11.1838 21.489L2.29289 12.598C1.90237 12.2075 1.90237 11.5744 2.29289 11.1838L11.1838 2.29289C11.5744 1.90237 12.2075 1.90237 12.598 2.29289ZM9.76962 0.87868C10.9412 -0.292893 12.8407 -0.292894 14.0123 0.878679L22.9032 9.76962C24.0748 10.9412 24.0748 12.8407 22.9032 14.0123L14.0123 22.9032C12.8407 24.0748 10.9412 24.0748 9.76962 22.9032L0.87868 14.0123C-0.292893 12.8407 -0.292894 10.9412 0.878679 9.76962L9.76962 0.87868Z"/>
</mask>
<path fill-rule="evenodd" clip-rule="evenodd" d="M12.598 2.29289L21.489 11.1838C21.8795 11.5744 21.8795 12.2075 21.489 12.598L12.598 21.489C12.2075 21.8795 11.5744 21.8795 11.1838 21.489L2.29289 12.598C1.90237 12.2075 1.90237 11.5744 2.29289 11.1838L11.1838 2.29289C11.5744 1.90237 12.2075 1.90237 12.598 2.29289ZM9.76962 0.87868C10.9412 -0.292893 12.8407 -0.292894 14.0123 0.878679L22.9032 9.76962C24.0748 10.9412 24.0748 12.8407 22.9032 14.0123L14.0123 22.9032C12.8407 24.0748 10.9412 24.0748 9.76962 22.9032L0.87868 14.0123C-0.292893 12.8407 -0.292894 10.9412 0.878679 9.76962L9.76962 0.87868Z" fill="black"/>
<path d="M21.489 11.1838L20.7819 11.8909L20.7819 11.8909L21.489 11.1838ZM12.598 2.29289L11.8909 3L11.8909 3L12.598 2.29289ZM21.489 12.598L20.7819 11.8909L20.7819 11.8909L21.489 12.598ZM12.598 21.489L11.8909 20.7819L11.8909 20.7819L12.598 21.489ZM11.1838 21.489L11.8909 20.7819L11.8909 20.7819L11.1838 21.489ZM2.29289 12.598L3 11.8909L3 11.8909L2.29289 12.598ZM2.29289 11.1838L3 11.8909L3 11.8909L2.29289 11.1838ZM11.1838 2.29289L11.8909 3L11.8909 3L11.1838 2.29289ZM14.0123 0.878679L14.7194 0.171572L14.7194 0.171572L14.0123 0.878679ZM9.76962 0.87868L10.4767 1.58579L10.4767 1.58579L9.76962 0.87868ZM22.9032 9.76962L23.6103 9.06251L23.6103 9.06251L22.9032 9.76962ZM22.9032 14.0123L22.1961 13.3052L22.1961 13.3052L22.9032 14.0123ZM14.0123 22.9032L14.7194 23.6103L14.7194 23.6103L14.0123 22.9032ZM9.76962 22.9032L10.4767 22.1961L9.76962 22.9032ZM0.87868 14.0123L1.58579 13.3052L1.58579 13.3052L0.87868 14.0123ZM0.878679 9.76962L0.171572 9.06251L0.171572 9.06251L0.878679 9.76962ZM22.1961 10.4767L13.3052 1.58579L11.8909 3L20.7819 11.8909L22.1961 10.4767ZM22.1961 13.3052C22.9771 12.5241 22.9771 11.2578 22.1961 10.4767L20.7819 11.8909L20.7819 11.8909L22.1961 13.3052ZM13.3052 22.1961L22.1961 13.3052L20.7819 11.8909L11.8909 20.7819L13.3052 22.1961ZM10.4767 22.1961C11.2578 22.9771 12.5241 22.9771 13.3052 22.1961L11.8909 20.7819L11.8909 20.7819L10.4767 22.1961ZM1.58579 13.3052L10.4767 22.1961L11.8909 20.7819L3 11.8909L1.58579 13.3052ZM1.58579 10.4767C0.804738 11.2578 0.804737 12.5241 1.58579 13.3052L3 11.8909L3 11.8909L1.58579 10.4767ZM10.4767 1.58579L1.58579 10.4767L3 11.8909L11.8909 3L10.4767 1.58579ZM13.3052 1.58579C12.5241 0.804738 11.2578 0.804737 10.4767 1.58579L11.8909 3L11.8909 3L13.3052 1.58579ZM14.7194 0.171572C13.1573 -1.39053 10.6246 -1.39052 9.06251 0.171573L10.4767 1.58579C11.2578 0.804738 12.5241 0.804738 13.3052 1.58579L14.7194 0.171572ZM23.6103 9.06251L14.7194 0.171572L13.3052 1.58579L22.1961 10.4767L23.6103 9.06251ZM23.6103 14.7194C25.1724 13.1573 25.1724 10.6246 23.6103 9.06251L22.1961 10.4767C22.9771 11.2578 22.9771 12.5241 22.1961 13.3052L23.6103 14.7194ZM14.7194 23.6103L23.6103 14.7194L22.1961 13.3052L13.3052 22.1961L14.7194 23.6103ZM9.06251 23.6103C10.6246 25.1724 13.1573 25.1724 14.7194 23.6103L13.3052 22.1961C12.5241 22.9771 11.2578 22.9771 10.4767 22.1961L9.06251 23.6103ZM0.171573 14.7194L9.06251 23.6103L10.4767 22.1961L1.58579 13.3052L0.171573 14.7194ZM0.171572 9.06251C-1.39053 10.6246 -1.39052 13.1573 0.171573 14.7194L1.58579 13.3052C0.804738 12.5241 0.804738 11.2578 1.58579 10.4767L0.171572 9.06251ZM9.06251 0.171573L0.171572 9.06251L1.58579 10.4767L10.4767 1.58579L9.06251 0.171573Z" fill="#7E8EFF" mask="url(#path-1-inside-1_241_2484)"/>
<path d="M8.576 9.844C8.608 8.94 8.888 8.248 9.416 7.768C9.944 7.28 10.68 7.036 11.624 7.036C12.24 7.036 12.764 7.144 13.196 7.36C13.636 7.568 13.968 7.856 14.192 8.224C14.416 8.584 14.528 8.992 14.528 9.448C14.528 9.992 14.396 10.428 14.132 10.756C13.868 11.076 13.568 11.292 13.232 11.404V11.452C14.2 11.812 14.684 12.5 14.684 13.516C14.684 14.02 14.568 14.464 14.336 14.848C14.104 15.232 13.768 15.532 13.328 15.748C12.888 15.964 12.364 16.072 11.756 16.072C10.756 16.072 9.964 15.832 9.38 15.352C8.804 14.864 8.504 14.12 8.48 13.12H10.772C10.756 13.44 10.824 13.688 10.976 13.864C11.128 14.04 11.356 14.128 11.66 14.128C11.892 14.128 12.072 14.056 12.2 13.912C12.336 13.768 12.404 13.576 12.404 13.336C12.404 13.032 12.304 12.808 12.104 12.664C11.912 12.52 11.596 12.448 11.156 12.448H10.736V10.54H11.144C11.448 10.548 11.704 10.5 11.912 10.396C12.128 10.284 12.236 10.064 12.236 9.736C12.236 9.488 12.176 9.304 12.056 9.184C11.936 9.056 11.772 8.992 11.564 8.992C11.332 8.992 11.16 9.076 11.048 9.244C10.944 9.404 10.884 9.604 10.868 9.844H8.576Z" fill="#7E8EFF"/>
</svg>
