<svg xmlns="http://www.w3.org/2000/svg" xmlns:xlink="http://www.w3.org/1999/xlink" width="1080" zoomAndPan="magnify" viewBox="0 0 810 809.999993" height="1080" preserveAspectRatio="xMidYMid meet" version="1.0"><defs><clipPath id="f829219a37"><path d="M 15.738281 15.738281 L 794.261719 15.738281 L 794.261719 794.261719 L 15.738281 794.261719 Z M 15.738281 15.738281 " clip-rule="nonzero"/></clipPath><clipPath id="5d4810bd62"><path d="M 405 15.738281 C 190.015625 15.738281 15.738281 190.015625 15.738281 405 C 15.738281 619.984375 190.015625 794.261719 405 794.261719 C 619.984375 794.261719 794.261719 619.984375 794.261719 405 C 794.261719 190.015625 619.984375 15.738281 405 15.738281 Z M 405 15.738281 " clip-rule="nonzero"/></clipPath><clipPath id="d0e6b9f8cc"><path d="M 15.738281 15.738281 L 794.238281 15.738281 L 794.238281 794.238281 L 15.738281 794.238281 Z M 15.738281 15.738281 " clip-rule="nonzero"/></clipPath><clipPath id="9e0bcf851f"><path d="M 404.988281 15.738281 C 190.011719 15.738281 15.738281 190.011719 15.738281 404.988281 C 15.738281 619.964844 190.011719 794.238281 404.988281 794.238281 C 619.964844 794.238281 794.238281 619.964844 794.238281 404.988281 C 794.238281 190.011719 619.964844 15.738281 404.988281 15.738281 Z M 404.988281 15.738281 " clip-rule="nonzero"/></clipPath><clipPath id="457595057a"><path d="M 318 203.453125 L 492 203.453125 L 492 376 L 318 376 Z M 318 203.453125 " clip-rule="nonzero"/></clipPath><clipPath id="15853f3b39"><path d="M 255.351562 385 L 554.601562 385 L 554.601562 606.203125 L 255.351562 606.203125 Z M 255.351562 385 " clip-rule="nonzero"/></clipPath></defs><g clip-path="url(#f829219a37)"><g clip-path="url(#5d4810bd62)"><path fill="#f5f5f5" d="M 15.738281 15.738281 L 794.261719 15.738281 L 794.261719 794.261719 L 15.738281 794.261719 Z M 15.738281 15.738281 " fill-opacity="1" fill-rule="nonzero"/></g></g><g clip-path="url(#d0e6b9f8cc)"><g clip-path="url(#9e0bcf851f)"><path stroke-linecap="butt" transform="matrix(0.749977, 0, 0, 0.749977, 15.736627, 15.736643)" fill="none" stroke-linejoin="miter" d="M 519.017877 0.00218401 C 232.373806 0.00218401 0.00220602 232.373784 0.00220602 519.017855 C 0.00220602 805.661927 232.373806 1038.033527 519.017877 1038.033527 C 805.661949 1038.033527 1038.033549 805.661927 1038.033549 519.017855 C 1038.033549 232.373784 805.661949 0.00218401 519.017877 0.00218401 Z M 519.017877 0.00218401 " stroke="#f5f5f5" stroke-width="50" stroke-opacity="1" stroke-miterlimit="4"/></g></g><g clip-path="url(#457595057a)"><path fill="#ffa842" d="M 491.046875 289.460938 C 491.046875 242.039062 452.433594 203.453125 404.976562 203.453125 C 357.523438 203.453125 318.90625 242.039062 318.90625 289.460938 C 318.90625 336.75 357.523438 375.335938 404.976562 375.335938 C 452.433594 375.335938 491.046875 336.75 491.046875 289.460938 Z M 491.046875 289.460938 " fill-opacity="1" fill-rule="nonzero"/></g><g clip-path="url(#15853f3b39)"><path fill="#ffa842" d="M 255.460938 534.75 L 255.460938 560.730469 C 255.460938 585.804688 275.875 606.203125 300.964844 606.203125 L 508.988281 606.203125 C 534.082031 606.203125 554.492188 585.804688 554.492188 560.730469 L 554.492188 534.75 C 554.492188 452.378906 487.40625 385.339844 404.976562 385.339844 C 322.546875 385.339844 255.460938 452.378906 255.460938 534.75 Z M 255.460938 534.75 " fill-opacity="1" fill-rule="nonzero"/></g></svg>